<svg width="302" height="302" viewBox="0 0 302 302" fill="none" xmlns="http://www.w3.org/2000/svg">
<path fill-rule="evenodd" clip-rule="evenodd" d="M300 16C300 7.71573 293.284 1 285 1H91L0 92V286C0 294.284 6.71573 301 15 301H285C293.284 301 300 294.284 300 286V16Z" fill="#0075FF"/>
<path d="M94 7L6 95H53L62.5851 94.7662C73.7232 94.4946 79.2922 94.3587 83.5189 92.0713C87.0821 90.1431 89.9755 87.1782 91.8163 83.5691C94 79.2878 94 73.7172 94 62.5758V51V7Z" fill="white"/>
<path d="M64.3137 218.548L79.4413 183.824L99.0372 203.42L64.3137 218.548Z" fill="white"/>
<rect x="81" y="181.534" width="150" height="28" transform="rotate(-45.0784 81 181.534)" fill="white"/>
<path d="M208.605 93L189 73.3838C189 73.3838 197.043 57.7914 208.605 53.7676C220.167 49.7437 232.231 62.3182 228.21 73.3838C224.188 84.4494 208.605 93 208.605 93Z" fill="white"/>
<path d="M62 229C24 259 155 243 229 229" stroke="white" stroke-width="6" stroke-linecap="round"/>
</svg>
